<?xml version="1.0" standalone="no"?>
<!DOCTYPE svg PUBLIC "-//W3C//DTD SVG 20010904//EN"
 "http://www.w3.org/TR/2001/REC-SVG-20010904/DTD/svg10.dtd">
<svg version="1.0" xmlns="http://www.w3.org/2000/svg"
 width="512.000000pt" height="512.000000pt" viewBox="0 0 512.000000 512.000000"
 preserveAspectRatio="xMidYMid meet">
<metadata>
Created by potrace 1.11, written by Peter Selinger 2001-2013
</metadata>
<g transform="translate(0.000000,512.000000) scale(0.100000,-0.100000)"
fill="#000000" stroke="none">
<path d="M2054 4712 c-6 -4 -17 -51 -24 -104 -7 -54 -16 -98 -20 -98 -4 0 -13
-45 -20 -100 -7 -55 -16 -100 -20 -100 -4 0 -13 -43 -21 -95 -7 -52 -16 -95
-19 -95 -4 0 -13 -45 -20 -100 -7 -55 -16 -100 -20 -100 -3 0 -12 -40 -19 -90
-7 -49 -17 -90 -22 -90 -5 0 -9 -7 -9 -15 0 -13 -39 -15 -290 -15 l-290 0 0
-175 0 -175 260 0 c167 0 260 -4 260 -10 0 -5 -4 -10 -8 -10 -5 0 -14 -41 -21
-92 -6 -51 -16 -95 -20 -98 -4 -3 -14 -48 -21 -100 -7 -52 -17 -97 -21 -100
-4 -3 -14 -47 -20 -98 -7 -51 -16 -92 -20 -92 -4 0 -10 -26 -14 -57 -3 -32 -9
-68 -12 -80 l-5 -23 -289 0 -289 0 0 -170 0 -170 254 0 255 0 -6 -37 c-3 -21
-9 -40 -13 -43 -4 -3 -13 -49 -20 -102 -7 -54 -16 -98 -20 -98 -4 0 -13 -43
-21 -95 -7 -52 -16 -95 -19 -95 -4 0 -13 -45 -20 -100 -7 -55 -16 -100 -20
-100 -4 0 -13 -43 -20 -95 -7 -52 -17 -95 -21 -95 -4 0 -10 -26 -13 -57 -4
-32 -9 -66 -12 -75 -5 -17 8 -18 185 -18 184 0 191 1 191 20 0 11 4 20 9 20 5
0 15 41 22 90 7 50 16 90 19 90 4 0 13 45 20 100 7 55 16 100 20 100 4 0 13
43 20 95 7 52 17 95 21 95 4 0 12 45 19 100 7 55 16 100 20 100 4 0 13 45 20
100 l13 100 398 0 399 0 -7 -47 c-3 -27 -9 -50 -14 -53 -4 -3 -13 -49 -20
-102 -7 -54 -16 -98 -19 -98 -4 0 -13 -40 -19 -90 -7 -49 -16 -90 -20 -90 -4
0 -14 -45 -21 -100 -7 -55 -15 -100 -19 -100 -4 0 -13 -44 -20 -97 -7 -54 -17
-100 -21 -103 -4 -3 -12 -33 -17 -67 l-10 -63 186 0 c102 0 191 4 197 8 6 4
17 51 24 105 8 53 17 97 21 97 4 0 13 40 20 90 6 49 15 90 19 90 4 0 13 45 20
100 7 55 15 100 19 100 4 0 13 41 20 92 6 51 16 95 20 98 4 3 14 49 21 103 8
53 17 97 22 97 4 0 8 7 8 15 0 13 39 15 290 15 l290 0 0 170 0 170 -260 0
c-218 0 -260 2 -260 14 0 8 4 16 10 18 5 2 15 45 21 96 7 50 16 92 19 92 4 0
13 41 20 90 7 50 16 90 20 90 4 0 13 45 20 100 7 55 16 100 21 100 5 0 9 8 9
17 0 9 5 45 11 80 l11 63 289 0 289 0 0 175 0 175 -253 0 -253 0 4 40 c2 22 8
40 12 40 5 0 14 41 21 90 6 50 15 90 19 90 4 0 13 45 20 100 7 55 15 100 19
100 4 0 14 43 21 95 7 52 16 95 20 95 4 0 13 45 20 100 7 55 16 100 20 100 4
0 10 26 14 57 4 31 9 67 12 80 l6 23 -191 0 c-184 0 -191 -1 -191 -20 0 -11
-4 -20 -8 -20 -5 0 -14 -44 -22 -97 -7 -54 -17 -100 -21 -103 -4 -3 -14 -47
-20 -98 -7 -51 -16 -92 -20 -92 -4 0 -12 -45 -19 -100 -7 -55 -16 -100 -20
-100 -4 0 -13 -40 -20 -90 -7 -49 -16 -90 -20 -90 -4 0 -13 -45 -20 -100 l-13
-100 -399 0 -398 0 6 43 c4 23 10 44 14 47 4 3 13 47 20 98 7 50 16 92 20 92
4 0 13 45 20 100 7 55 16 100 20 100 4 0 13 45 20 100 7 55 17 100 21 100 4 0
12 39 19 88 7 48 16 89 20 92 4 3 11 38 16 78 l10 72 -185 0 c-102 0 -191 -4
-197 -8z m896 -1372 c0 -11 -4 -20 -9 -20 -5 0 -14 -45 -21 -100 -7 -55 -17
-100 -21 -100 -4 0 -12 -39 -19 -87 -7 -49 -16 -90 -20 -93 -4 -3 -12 -45 -19
-95 -7 -49 -16 -92 -20 -95 -5 -3 -12 -32 -16 -64 -4 -33 -9 -65 -12 -73 -4
-10 -79 -13 -399 -13 -387 0 -394 0 -394 20 0 11 4 20 8 20 5 0 15 43 22 95 7
52 16 95 20 95 4 0 12 44 20 98 7 53 17 99 21 102 4 3 14 47 20 98 7 51 16 92
20 92 4 0 10 28 14 63 4 34 9 65 12 70 2 4 182 7 399 7 387 0 394 0 394 -20z"/>
<path d="M720 600 l0 -150 1745 0 1745 0 0 150 0 150 -1745 0 -1745 0 0 -150z"/>
</g>
</svg>
